# xmcd
#
# Track frame offsets:
# 150
# 17303
# 35203
# 54157
# 71871
# 86236
# 105211
# 124768
# 142954
# 160973
# 176051
# 193183
# 209862
#
# Disc length: 3013 seconds
#
#
# Revision: 0
# Processed by: cddbd v1.5.1PL2 Copyright (c) Steve Scherf et al.
# Submitted via: FreeRIP 2.91 
#
DISCID=bb0bc30d
DTITLE=Zezé Di Camargo and Luciano - Salva Meu Coração
DYEAR=1900
DGENRE=
TTITLE0=Como Um Anjo ( Bônus Track )
TTITLE1=Sintonizo O Coração
TTITLE2=Madrugada Em Meu Olhar
TTITLE3=Tente Outra Vez
TTITLE4=Foi A Primeira Vez
TTITLE5=Você Vai Ver
TTITLE6=Vem Cuidar De Mim
TTITLE7=Te Amar Assim
TTITLE8=Por Amor Te Deixo Ir
TTITLE9=Bandido Com Razão
TTITLE10=Salva Meu Coração
TTITLE11=A Gente Gente Fica Sem Se Amar
TTITLE12=Depois Que Você
EXTD=
EXTT0=
EXTT1=
EXTT2=
EXTT3=
EXTT4=
EXTT5=
EXTT6=
EXTT7=
EXTT8=
EXTT9=
EXTT10=
EXTT11=
EXTT12=
PLAYORDER=
